<svg width="152" height="112" viewBox="0 0 152 112" fill="none" xmlns="http://www.w3.org/2000/svg">
<g id="6937153m 1" clip-path="url(#clip0_2_3)">
<g id="OBJECTS">
<path id="Vector" d="M76.125 0C57.425 0 41.735 1.978 35.951 4.617C30.167 7.256 23.725 20.031 23.725 20.031C23.725 20.031 19.763 19.299 18.337 17.979C16.911 16.659 20.555 13.094 11.786 13.094C3.017 13.094 2.594 17.784 11.786 20.618C20.978 23.452 20.978 24.818 20.978 24.818C10.835 24.818 6.978 30.018 5.051 38.818C3.144 47.518 1.32701 60.389 7.87701 66.448C5.87001 57.848 9.88401 52.865 19.71 57.262C8.45801 48.517 6.55601 36.693 12.737 35.13C18.918 33.567 40.589 46.758 40.589 46.758C33.656 39.38 21.453 31.343 21.453 29.389C21.453 27.435 30.17 9.772 37.776 6.645C45.382 3.518 76.125 2.931 76.125 2.931V0Z" fill="#EFEFEF"/>
<path id="Vector_2" d="M76.125 0C94.825 0 110.515 1.978 116.299 4.617C122.083 7.256 128.525 20.031 128.525 20.031C128.525 20.031 132.487 19.299 133.913 17.979C135.339 16.659 131.695 13.094 140.464 13.094C149.233 13.094 149.655 17.784 140.464 20.618C131.273 23.452 131.272 24.818 131.272 24.818C141.415 24.818 145.272 30.018 147.199 38.818C149.105 47.518 150.923 60.389 144.373 66.448C146.38 57.848 142.366 52.865 132.54 57.262C143.792 48.517 145.694 36.693 139.513 35.13C133.332 33.567 111.661 46.758 111.661 46.758C118.594 39.38 130.797 31.343 130.797 29.389C130.797 27.435 122.08 9.772 114.473 6.645C106.866 3.518 76.125 2.931 76.125 2.931V0Z" fill="#EFEFEF"/>
<path id="Vector_3" d="M124.5 16.243C128.625 23.098 76.125 22.865 76.125 22.865C76.125 22.865 23.625 23.098 27.75 16.243L25.299 20.916C27.517 22.968 57.425 23.842 76.125 23.842C94.825 23.842 124.733 22.968 126.951 20.916L124.5 16.243Z" fill="#EFEFEF"/>
<path id="Vector_4" d="M106.315 47.416C98.625 49.542 76.125 49.288 76.125 49.288C76.125 49.288 53.625 49.545 45.935 47.419C51.244 49.985 62.02 51.597 76.125 51.597C90.23 51.597 101.006 49.982 106.315 47.416Z" fill="#EFEFEF"/>
<path id="Vector_5" d="M107.715 55.698C111.515 61.952 108.56 66.251 98.415 66.935C88.815 67.583 78.434 67.617 77.349 67.619C76.026 67.619 63.43 67.583 53.83 66.935C43.688 66.251 40.73 61.952 44.53 55.698C36.289 60.193 28.471 59.998 23.611 57.75C24.853 60.35 31.852 65.323 38.455 67.717C44.881 70.047 59.664 70.256 77.247 70.258H77.467C95.027 70.258 107.359 70.047 113.785 67.717C120.385 65.323 127.385 60.352 128.629 57.75C123.774 59.997 115.956 60.193 107.715 55.698Z" fill="#EFEFEF"/>
<path id="Vector_6" d="M76.125 46.354C78.0944 46.354 79.691 45.8042 79.691 45.126C79.691 44.4478 78.0944 43.898 76.125 43.898C74.1556 43.898 72.559 44.4478 72.559 45.126C72.559 45.8042 74.1556 46.354 76.125 46.354Z" fill="#EFEFEF"/>
</g>
<g id="TEXTS">
<g id="Vector_7">
<path d="M21.808 110.514C19.3993 111.5 16.8092 111.965 14.208 111.879C6.09999 111.879 -0.00300598 106.758 -0.00300598 97.325C-0.00300598 88.325 6.097 82.217 15.019 82.217C17.363 82.1188 19.6986 82.5566 21.848 83.497L20.948 86.527C19.1249 85.7052 17.1424 85.2974 15.143 85.333C8.40001 85.333 3.91901 89.644 3.91901 97.197C3.91901 104.239 7.973 108.764 14.972 108.764C17.0541 108.793 19.1191 108.384 21.033 107.564L21.808 110.514Z" fill="#EFEFEF"/>
<path d="M21.808 110.514C19.3993 111.5 16.8092 111.965 14.208 111.879C6.09999 111.879 -0.00300598 106.758 -0.00300598 97.325C-0.00300598 88.325 6.097 82.217 15.019 82.217C17.363 82.1188 19.6986 82.5566 21.848 83.497L20.948 86.527C19.1249 85.7052 17.1424 85.2974 15.143 85.333C8.40001 85.333 3.91901 89.644 3.91901 97.197C3.91901 104.239 7.973 108.764 14.972 108.764C17.0541 108.793 19.1191 108.384 21.033 107.564L21.808 110.514Z" fill="#EFEFEF"/>
</g>
<path id="Vector_8" d="M31.285 102.404L28.298 111.452H24.457L34.23 82.687H38.711L48.527 111.452H44.559L41.485 102.404H31.285ZM40.717 99.504L37.9 91.225C37.26 89.347 36.833 87.64 36.407 85.975H36.325C35.899 87.682 35.425 89.432 34.874 91.182L32.057 99.504H40.717Z" fill="#EFEFEF"/>
<path id="Vector_9" d="M52.756 83.07C55.1081 82.6509 57.4939 82.45 59.883 82.47C63.853 82.47 66.413 83.195 68.206 84.816C68.9498 85.5134 69.5362 86.3614 69.9261 87.3035C70.316 88.2456 70.5004 89.26 70.467 90.279C70.4881 91.9264 69.9699 93.5354 68.9913 94.8608C68.0127 96.1862 66.6276 97.1552 65.047 97.62V97.748C67.267 98.517 68.59 100.565 69.272 103.553C70.211 107.564 70.895 110.339 71.492 111.448H67.651C66.7919 109.225 66.1486 106.924 65.73 104.577C64.876 100.607 63.34 99.114 59.969 98.986H56.469V111.448H52.756V83.07ZM56.469 96.17H60.269C64.238 96.17 66.756 93.993 66.756 90.707C66.756 86.994 64.068 85.372 60.141 85.33C58.9084 85.2956 57.6761 85.4101 56.471 85.671L56.469 96.17Z" fill="#EFEFEF"/>
<path id="Vector_10" d="M75.208 106.928C77.2198 108.136 79.5182 108.785 81.865 108.806C85.665 108.806 87.883 106.8 87.883 103.899C87.883 101.209 86.347 99.673 82.463 98.179C77.769 96.515 74.863 94.079 74.863 90.027C74.863 85.546 78.576 82.217 84.163 82.217C86.3676 82.1427 88.5552 82.6274 90.522 83.626L89.498 86.655C87.8187 85.7531 85.9411 85.284 84.035 85.29C80.108 85.29 78.615 87.638 78.615 89.601C78.615 92.289 80.365 93.612 84.334 95.149C89.199 97.026 91.675 99.374 91.675 103.6C91.675 108.038 88.389 111.879 81.602 111.879C79.038 111.911 76.5094 111.278 74.262 110.044L75.208 106.928Z" fill="#EFEFEF"/>
<path id="Vector_11" d="M101.414 102.404L98.427 111.452H94.586L104.359 82.687H108.84L118.656 111.452H114.688L111.614 102.404H101.414ZM110.846 99.504L108.029 91.225C107.39 89.347 106.962 87.64 106.535 85.975H106.45C106.023 87.682 105.55 89.432 104.999 91.182L102.183 99.504H110.846Z" fill="#EFEFEF"/>
<path id="Vector_12" d="M146.956 98.819C146.742 94.808 146.486 89.984 146.529 86.4H146.401C145.42 89.772 144.225 93.357 142.773 97.325L137.694 111.281H134.878L130.226 97.581C128.86 93.527 127.708 89.815 126.896 86.4H126.812C126.727 89.984 126.512 94.808 126.257 99.118L125.488 111.452H121.946L123.952 82.687H128.689L133.598 96.6C134.792 100.143 135.774 103.3 136.498 106.288H136.626C137.352 103.388 138.375 100.228 139.656 96.6L144.777 82.687H149.515L151.308 111.452H147.68L146.956 98.819Z" fill="#EFEFEF"/>
</g>
</g>
<defs>
<clipPath id="clip0_2_3">
<rect width="151.31" height="111.88" fill="white"/>
</clipPath>
</defs>
</svg>
